<svg xmlns="http://www.w3.org/2000/svg" viewBox="0 0 336.445 92.299"><g data-name="Capa 1 copia"><path d="M331.133 79.188a2.9 2.9 0 0 0-3.446-2.053c-8.112 1.247-11.714-3.343-14.534-10.206-7.814-19.027-16.534-37.693-24.051-56.833-2.95-7.509-6.424-10.979-14.881-9.905-7.38.937-7.369.151-4.82 7.131 1.2 3.282 4.189 6.236 2.424 10.219-3.58 8.08-7.2 16.143-11.148 24.99-1.388-12.854-6.992-21.912-18.68-25.823-9.374-3.136-19.176-1-28.644-1.416 1.772 9.952 7.344 13.793 16.764 11.978a17.2 17.2 0 0 1 3.49-.027 14.754 14.754 0 0 1 14.732 14.913c-.157 8.129-6.971 14.4-15.315 14.381-2.32 0-2.756-.835-2.7-2.874.119-4.325.035-8.656.034-12.984 0-7.965 0-7.8-8.234-7.865-3.073-.025-3.912.764-3.84 3.851q.325 13.977-.006 27.963c-.08 3.167.878 3.751 3.878 3.8 10.11.177 20.308 1.251 29.039-5.986a16.8 16.8 0 0 1-1.364 4.03c-.489 1.065-.511 1.682.916 2.1 6.865 2 13.444-.838 16.358-7.344 4.238-9.465 8.385-18.972 12.921-29.255l19.5 45.31h-71.087c1.746 3.913 3.526 7.25 4.723 10.784 1.058 3.125 2.587 4.248 6.05 4.23 31.133-.163 62.267-.089 93.4-.124 1.2 0 2.587.493 3.829-.707-1.802-4.151-3.589-8.2-5.308-12.278M166.396 15.088c-6.96-.086-9.367 1.3-12.452 8.188-4.571 10.2-9.039 20.452-13.962 31.613-5.043-11.422-9.778-22.087-14.473-32.768-2.07-4.71-5.3-7.334-10.775-7.024-4.952.28-9.932.059-16.086.059 4.358 4.148 2.809 11.894 10.726 11.984.859.01 1.012.709 1.012 1.384q.016 12.393.007 24.784c-5.376-10.256-10.028-20.439-14.512-30.7-2.226-5.093-5.53-8.028-11.458-7.522-3.638.31-7.324.1-10.988.047-1.541-.019-2.924-.04-3.656 1.733-1.367 3.314-2.849 6.581-4.366 10.057l7 .359-18 40.929a37 37 0 0 1 5.749.043c6.881 1.23 10.207-2.216 12.609-8.257 3.687-9.27 8.068-18.265 12.059-27.17 1.846.014 1.609 1.583 2.048 2.561 3.917 8.72 7.841 17.439 11.573 26.239 2.06 4.857 5.183 7.4 10.721 6.758a55.4 55.4 0 0 1 9.98-.107c2.752.184 3.311-.905 3.255-3.405-.151-6.706-.051-13.418-.051-20.127a133 133 0 0 1 8.63 17.232c1.632 3.86 3.879 6.2 8.458 6.34 4.734.141 7.411-1.923 9.177-6.042 2.613-6.091 5.415-12.1 8.329-18.57a8 8 0 0 1 .418 1.437q.027 7.245.021 14.489c0 9.325 0 9.237 9.3 8.779 2.158-.106 2.824-.642 2.812-2.83q-.127-23.731.009-47.465c.019-2.475-.786-2.999-3.114-3.028"/><path d="M70.253.378c-5.07 0-9.4.153-13.716-.053-3-.143-4.622.635-5.926 3.714-9.195 21.7-18.845 43.209-27.943 64.949-2.49 5.948-6.048 8.759-12.4 8.184-1.761-.159-3.644-.465-4.587 1.838C3.952 83.227 2.084 87.385 0 92.202h98.832c1.5 0 2.9.124 3.665-1.755 1.767-4.362 3.735-8.643 5.8-13.367H37.304ZM209.165 38.21c-1.62-1.68-1.67-3.02-1.16-5.25 1.85-8.09-4.03-16.72-12.02-17.63-3.95-.45-7.99-.09-11.98-.09-8.75 0-8.62 0-8.48 8.7.05 2.65.79 3.46 3.39 3.35 4.32-.19 8.66-.06 12.99-.05 1.99 0 4.43-.25 4.37 2.62-.06 2.45-2.11 3.07-4.3 3.06-4.33-.01-8.67.12-12.99-.05-2.58-.1-3.54.74-3.44 3.39.18 4.82.05 9.66.05 14.49.01 4.66.19 9.33-.06 13.98-.15 2.95.94 3.63 3.69 3.55 5.49-.16 10.99-.08 16.48.09 8.04.25 13.8-3.4 17.07-10.49 3.31-7.19 1.9-13.97-3.61-19.67m-10.24 13.68a5.74 5.74 0 0 1-5.74 5.74h-7.33V44.56h7.99a5.074 5.074 0 0 1 5.08 5.08Z"/></g><g data-name="Capa 2"><path d="M130.391 91.744a8.3 8.3 0 0 1-3.309-.573 4.4 4.4 0 0 1-1.986-1.6 4.7 4.7 0 0 1-.738-2.393q-.021-.691-.022-1.483t.022-1.517a4.7 4.7 0 0 1 .738-2.393 4.4 4.4 0 0 1 1.986-1.6 8.3 8.3 0 0 1 3.309-.572 9.7 9.7 0 0 1 2.627.319 6 6 0 0 1 1.877.859 4 4 0 0 1 1.14 1.2 3.1 3.1 0 0 1 .434 1.373.25.25 0 0 1-.12.253.56.56 0 0 1-.336.1h-1.194a.64.64 0 0 1-.336-.085.5.5 0 0 1-.206-.3 2.67 2.67 0 0 0-1.379-1.8 5.8 5.8 0 0 0-2.528-.488 4.48 4.48 0 0 0-2.756.767 3.08 3.08 0 0 0-1.107 2.452q-.066 1.382 0 2.83a3.07 3.07 0 0 0 1.107 2.452 4.48 4.48 0 0 0 2.756.767 5.8 5.8 0 0 0 2.528-.489 2.67 2.67 0 0 0 1.379-1.8.5.5 0 0 1 .206-.3.64.64 0 0 1 .336-.084h1.194a.56.56 0 0 1 .336.1.25.25 0 0 1 .12.253 3.1 3.1 0 0 1-.434 1.373 4 4 0 0 1-1.14 1.2 6 6 0 0 1-1.877.859 9.7 9.7 0 0 1-2.627.32M145.193 91.575a.56.56 0 0 1-.368-.109.35.35 0 0 1-.131-.278v-11.02a.35.35 0 0 1 .131-.278.56.56 0 0 1 .368-.11h1.151a.53.53 0 0 1 .347.11.35.35 0 0 1 .13.278v9.942h7.228a.56.56 0 0 1 .369.109.37.37 0 0 1 .13.3v.674a.35.35 0 0 1-.13.278.56.56 0 0 1-.369.109ZM160.039 91.575a.5.5 0 0 1-.3-.1.3.3 0 0 1-.13-.236 1 1 0 0 1 .021-.185l5.383-10.9a.7.7 0 0 1 .239-.27.83.83 0 0 1 .455-.1h1.476a.85.85 0 0 1 .445.1.7.7 0 0 1 .25.27l5.361 10.9a.5.5 0 0 1 .043.185.3.3 0 0 1-.131.236.48.48 0 0 1-.3.1h-1.112a.6.6 0 0 1-.381-.1.7.7 0 0 1-.162-.185l-1.193-2.392h-7.119l-1.194 2.392a.4.4 0 0 1-.151.185.63.63 0 0 1-.391.1Zm3.473-4.128h5.86l-2.933-5.982ZM185.215 91.744a9.7 9.7 0 0 1-3.169-.447 4.9 4.9 0 0 1-1.964-1.162 2.4 2.4 0 0 1-.728-1.525.31.31 0 0 1 .142-.245.53.53 0 0 1 .336-.109h1.107a.63.63 0 0 1 .391.1.5.5 0 0 1 .174.236 1.75 1.75 0 0 0 .531.8 3.3 3.3 0 0 0 1.194.656 6.3 6.3 0 0 0 1.986.262 5.6 5.6 0 0 0 2.746-.514 1.55 1.55 0 0 0 .878-1.369 1.15 1.15 0 0 0-.467-.951 4.5 4.5 0 0 0-1.422-.65q-.956-.285-2.475-.623a17 17 0 0 1-2.625-.776 3.8 3.8 0 0 1-1.551-1.045 2.55 2.55 0 0 1 .119-3.209 4.27 4.27 0 0 1 1.812-1.138 8.6 8.6 0 0 1 2.876-.42 8.9 8.9 0 0 1 2.355.277 5.5 5.5 0 0 1 1.682.741 3.7 3.7 0 0 1 1.02.994 2.07 2.07 0 0 1 .369 1.037.32.32 0 0 1-.108.227.48.48 0 0 1-.348.11h-1.149a.8.8 0 0 1-.316-.067.48.48 0 0 1-.249-.253 1.74 1.74 0 0 0-1-1.163 4.7 4.7 0 0 0-2.257-.472 5.3 5.3 0 0 0-2.29.421 1.38 1.38 0 0 0-.879 1.314 1.24 1.24 0 0 0 .412.953 3.6 3.6 0 0 0 1.3.666q.89.285 2.322.606a21 21 0 0 1 2.843.783 3.94 3.94 0 0 1 1.639 1.029 2.32 2.32 0 0 1 .532 1.575 2.53 2.53 0 0 1-.716 1.811 4.56 4.56 0 0 1-2.007 1.146 10.5 10.5 0 0 1-3.046.394M204.032 91.744a9.7 9.7 0 0 1-3.169-.447 4.9 4.9 0 0 1-1.964-1.162 2.38 2.38 0 0 1-.727-1.525.31.31 0 0 1 .141-.245.53.53 0 0 1 .336-.109h1.108a.63.63 0 0 1 .39.1.5.5 0 0 1 .174.236 1.75 1.75 0 0 0 .531.8 3.3 3.3 0 0 0 1.195.656 6.3 6.3 0 0 0 1.985.262 5.6 5.6 0 0 0 2.746-.514 1.55 1.55 0 0 0 .879-1.369 1.15 1.15 0 0 0-.467-.951 4.5 4.5 0 0 0-1.422-.65q-.954-.285-2.474-.623a17 17 0 0 1-2.626-.776 3.8 3.8 0 0 1-1.552-1.045 2.55 2.55 0 0 1 .119-3.209 4.3 4.3 0 0 1 1.813-1.138 8.6 8.6 0 0 1 2.876-.42 8.9 8.9 0 0 1 2.354.277 5.6 5.6 0 0 1 1.683.741 3.7 3.7 0 0 1 1.019.994 2.05 2.05 0 0 1 .369 1.037.32.32 0 0 1-.108.227.47.47 0 0 1-.348.11h-1.149a.8.8 0 0 1-.315-.067.47.47 0 0 1-.249-.253 1.74 1.74 0 0 0-1-1.163 4.7 4.7 0 0 0-2.257-.472 5.3 5.3 0 0 0-2.29.421 1.38 1.38 0 0 0-.879 1.314 1.24 1.24 0 0 0 .412.953 3.6 3.6 0 0 0 1.3.666q.888.285 2.322.606a21 21 0 0 1 2.843.783 3.94 3.94 0 0 1 1.638 1.029 2.32 2.32 0 0 1 .533 1.575 2.53 2.53 0 0 1-.716 1.811 4.6 4.6 0 0 1-2.008 1.146 10.5 10.5 0 0 1-3.046.394"/></g></svg>